<svg id="Layer_1" data-name="Layer 1" xmlns="http://www.w3.org/2000/svg" xmlns:xlink="http://www.w3.org/1999/xlink" viewBox="0 0 1080 1080"><defs><style>.cls-1{fill:#fff;}.cls-2{fill:url(#linear-gradient);}.cls-3{fill:url(#linear-gradient-2);}.cls-4{fill:url(#linear-gradient-3);}.cls-5{fill:url(#linear-gradient-4);}.cls-6{fill:url(#linear-gradient-5);}.cls-7{fill:url(#linear-gradient-6);}</style><linearGradient id="linear-gradient" x1="519.99" y1="526.35" x2="594.71" y2="526.35" gradientTransform="translate(1044.76 -88.02) rotate(90)" gradientUnits="userSpaceOnUse"><stop offset="0" stop-color="#f0a"/><stop offset="1" stop-color="#ff8000"/></linearGradient><linearGradient id="linear-gradient-2" x1="425.92" y1="440.59" x2="565.76" y2="440.59" gradientTransform="translate(1044.76 -88.02) rotate(90)" gradientUnits="userSpaceOnUse"><stop offset="0" stop-color="#8000ff"/><stop offset="1" stop-color="#ff0080"/></linearGradient><linearGradient id="linear-gradient-3" x1="457.85" y1="485.21" x2="569.47" y2="485.21" gradientTransform="translate(1044.76 -88.02) rotate(90)" gradientUnits="userSpaceOnUse"><stop offset="0" stop-color="#ff0"/><stop offset="1" stop-color="#00ffd5"/></linearGradient><linearGradient id="linear-gradient-4" x1="545.66" y1="448.36" x2="612.96" y2="448.36" gradientTransform="translate(1044.76 -88.02) rotate(90)" gradientUnits="userSpaceOnUse"><stop offset="0" stop-color="#00ffd5"/><stop offset="1" stop-color="#05f"/></linearGradient><linearGradient id="linear-gradient-5" x1="593.91" y1="485.21" x2="636" y2="485.21" gradientTransform="translate(1044.76 -88.02) rotate(90)" gradientUnits="userSpaceOnUse"><stop offset="0" stop-color="#0080ff"/><stop offset="1" stop-color="#bf00ff"/></linearGradient><linearGradient id="linear-gradient-6" x1="470.46" y1="517.32" x2="508.77" y2="517.32" gradientTransform="translate(1044.76 -88.02) rotate(90)" gradientUnits="userSpaceOnUse"><stop offset="0" stop-color="#ff8000"/><stop offset="1" stop-color="#ff0"/></linearGradient></defs><path class="cls-1" d="M310.71,598.85l-18.55,15.53c-6.33-7-14-10.64-23-10.64a26.79,26.79,0,0,0-19.41,7.77c-5.32,5.17-7.91,11.64-7.91,19.41s2.59,14.24,7.91,19.41A27.24,27.24,0,0,0,269.15,658c9.06,0,16.68-3.6,23-10.64l18.55,15.53a54.37,54.37,0,0,1-41.56,19.56q-22.86,0-38.83-14.67c-10.5-9.78-15.82-22-15.82-36.82s5.32-27,15.82-36.82c10.65-9.92,23.59-14.81,38.83-14.81A54.37,54.37,0,0,1,310.71,598.85Z"/><path class="cls-1" d="M407.57,597.12,389,612.66c-5.76-5.9-13.09-8.92-22.15-8.92a26.81,26.81,0,0,0-19.42,7.77c-5.32,5.17-7.91,11.64-7.91,19.41s2.59,14.24,7.91,19.41A27.27,27.27,0,0,0,366.87,658c8.91,0,15.82-2.88,20.85-8.63v-6.76H361.83V619.85h49.48v40.26c-9.35,13.38-25.89,22.3-44.44,22.3q-22.87,0-38.83-14.67c-10.5-9.78-15.82-22-15.82-36.82s5.32-27,15.82-36.82,23.58-14.81,38.83-14.81C383.12,579.29,396.78,585.19,407.57,597.12Z"/><path class="cls-1" d="M424.24,708.72V608.49h21.43V618c2.16-6.33,10.64-10.79,21.57-10.79,10.22,0,18.84,3.6,25.6,10.93,6.91,7.19,10.36,16.11,10.36,26.61a37.6,37.6,0,0,1-10.36,26.75c-6.76,7.19-15.38,10.78-25.6,10.78-10.93,0-19.41-4.46-21.57-10.78v37.24Zm52.21-51.05a17.61,17.61,0,0,0,5.32-12.94,17.05,17.05,0,0,0-5.32-12.8,17.67,17.67,0,0,0-13.09-5.32,18.65,18.65,0,0,0-13.52,5.32,17.18,17.18,0,0,0-5.46,12.8,17.74,17.74,0,0,0,5.46,12.94,19.16,19.16,0,0,0,13.52,5.18A18.14,18.14,0,0,0,476.45,657.67Z"/><path class="cls-1" d="M577.76,617.55a35.51,35.51,0,0,1,11.79,27.18,36,36,0,0,1-11.79,27.32,42.34,42.34,0,0,1-57.09,0A36.41,36.41,0,0,1,509,644.73a35.87,35.87,0,0,1,11.65-27.18,41.92,41.92,0,0,1,57.09,0Zm-41.85,40.7a19.11,19.11,0,0,0,26.75,0,18.81,18.81,0,0,0,5.46-13.52,18.26,18.26,0,0,0-5.46-13.38,18.75,18.75,0,0,0-26.75,0,18.22,18.22,0,0,0-5.46,13.38A18.54,18.54,0,0,0,535.91,658.25Z"/><path class="cls-1" d="M592.54,681V667.45l39.12-40.12H596.42V608.49h65v15.1l-36.82,38.54h38.25V681Z"/><path class="cls-1" d="M736.58,617.55a35.51,35.51,0,0,1,11.79,27.18,36,36,0,0,1-11.79,27.32,42.34,42.34,0,0,1-57.09,0,36.41,36.41,0,0,1-11.65-27.32,35.87,35.87,0,0,1,11.65-27.18,41.92,41.92,0,0,1,57.09,0Zm-41.85,40.7a19.11,19.11,0,0,0,26.75,0,18.81,18.81,0,0,0,5.46-13.52,18.26,18.26,0,0,0-5.46-13.38,18.75,18.75,0,0,0-26.75,0,18.23,18.23,0,0,0-5.47,13.38A18.55,18.55,0,0,0,694.73,658.25Z"/><path class="cls-1" d="M758.26,681V580.73h21.43V681Z"/><path class="cls-1" d="M789.85,644.58c0-11.36,3.74-20.56,11.08-27.47s16.82-10.49,28.19-10.49c11.07,0,20,3.59,26.89,10.64s10.35,15.67,10.35,26.17c0,2.45-.14,4.75-.28,6.9h-54.8c.43,8.63,7.91,14.24,19.27,14.24a24.9,24.9,0,0,0,17.69-7l12.51,11.93a41.9,41.9,0,0,1-31.2,13.23c-11.94,0-21.43-3.45-28.76-10.21s-10.94-16-10.94-27.32Zm54.94-8.19c0-6.76-7-12.09-15.67-12.09-9.35,0-17,5.33-17.55,12.09Z"/><path class="cls-2" d="M517,506.1l-70.7-70.7a2,2,0,0,1,1.42-3.43H589.12a2,2,0,0,1,1.42,3.43l-70.71,70.7A2,2,0,0,1,517,506.1Z"/><path class="cls-3" d="M648.22,477,535,363.77a2.37,2.37,0,0,1,0-3.39A82.51,82.51,0,0,1,651.62,477,2.38,2.38,0,0,1,648.22,477Z"/><path class="cls-4" d="M503.74,472.29c0-9.37,3.07-17.48,9-23.4,7.84-7.84,19.53-10.68,32.92-8,10,2,18.49.13,23.89-5.27s7.27-13.88,5.27-23.89c-2.68-13.39.16-25.08,8-32.92,7.43-7.43,18.32-10.37,30.84-8.37a2,2,0,0,1,1.67,2.39l-1.17,5.86a2,2,0,0,1-2.27,1.59c-9.18-1.41-17,.55-22,5.6-5.4,5.4-7.27,13.89-5.27,23.89,2.68,13.4-.16,25.09-8,32.93s-19.53,10.68-32.92,8c-10-2-18.49-.13-23.89,5.26-5.06,5.06-7,12.83-5.6,22a2,2,0,0,1-1.6,2.27l-5.85,1.17a2,2,0,0,1-2.4-1.68A46.83,46.83,0,0,1,503.74,472.29Z"/><circle class="cls-5" cx="596.4" cy="491.29" r="33.65"/><path class="cls-6" d="M538.5,522.81a25,25,0,0,1,5.91-16.21,2,2,0,0,1,3-.11l4.23,4.23a2,2,0,0,1,.12,2.72,15.37,15.37,0,0,0-2.52,14.08,11.58,11.58,0,0,0,.79,2,15.26,15.26,0,0,0,23.06,5.28,2,2,0,0,1,2.72.12l4.23,4.23a2,2,0,0,1-.11,3,25.2,25.2,0,0,1-41.4-19.29Z"/><path class="cls-7" d="M541.21,420.1l4.73-4.73a2.26,2.26,0,0,0,0-3.18L535.35,401.6,545.94,391a2.26,2.26,0,0,0,0-3.18l-4.73-4.73a2.25,2.25,0,0,0-3.18,0l-10.59,10.59L516.85,383.1a2.25,2.25,0,0,0-3.18,0l-4.73,4.73a2.25,2.25,0,0,0,0,3.18l10.59,10.59-10.59,10.59a2.25,2.25,0,0,0,0,3.18l4.73,4.73a2.25,2.25,0,0,0,3.18,0l10.59-10.59L538,420.1A2.25,2.25,0,0,0,541.21,420.1Z"/></svg>