<svg id="Layer_1" data-name="Layer 1" xmlns="http://www.w3.org/2000/svg" xmlns:xlink="http://www.w3.org/1999/xlink" viewBox="0 0 1080 1080"><defs><style>.cls-1{fill:url(#linear-gradient);}.cls-2{fill:url(#linear-gradient-2);}.cls-3{fill:url(#linear-gradient-3);}.cls-4{fill:url(#linear-gradient-4);}.cls-5{fill:url(#linear-gradient-5);}.cls-6{fill:url(#linear-gradient-6);}</style><linearGradient id="linear-gradient" x1="-3796.88" y1="-3761.11" x2="-3627.34" y2="-3761.11" gradientTransform="translate(-3355.24 4311.98) rotate(90)" gradientUnits="userSpaceOnUse"><stop offset="0" stop-color="#f0a"/><stop offset="1" stop-color="#ff8000"/></linearGradient><linearGradient id="linear-gradient-2" x1="-4010.32" y1="-3955.7" x2="-3693.02" y2="-3955.7" gradientTransform="translate(-3355.24 4311.98) rotate(90)" gradientUnits="userSpaceOnUse"><stop offset="0" stop-color="#8000ff"/><stop offset="1" stop-color="#ff0080"/></linearGradient><linearGradient id="linear-gradient-3" x1="-3937.87" y1="-3854.46" x2="-3684.61" y2="-3854.46" gradientTransform="translate(-3355.24 4311.98) rotate(90)" gradientUnits="userSpaceOnUse"><stop offset="0" stop-color="#ff0"/><stop offset="1" stop-color="#00ffd5"/></linearGradient><linearGradient id="linear-gradient-4" x1="-3738.62" y1="-3938.06" x2="-3585.94" y2="-3938.06" gradientTransform="translate(-3355.24 4311.98) rotate(90)" gradientUnits="userSpaceOnUse"><stop offset="0" stop-color="#00ffd5"/><stop offset="1" stop-color="#05f"/></linearGradient><linearGradient id="linear-gradient-5" x1="-3629.15" y1="-3854.46" x2="-3533.65" y2="-3854.46" gradientTransform="translate(-3355.24 4311.98) rotate(90)" gradientUnits="userSpaceOnUse"><stop offset="0" stop-color="#0080ff"/><stop offset="1" stop-color="#bf00ff"/></linearGradient><linearGradient id="linear-gradient-6" x1="-3909.25" y1="-3781.59" x2="-3822.32" y2="-3781.59" gradientTransform="translate(-3355.24 4311.98) rotate(90)" gradientUnits="userSpaceOnUse"><stop offset="0" stop-color="#ff8000"/><stop offset="1" stop-color="#ff0"/></linearGradient></defs><path class="cls-1" d="M402.65,683.31,242.23,522.89a4.56,4.56,0,0,1,3.23-7.79H566.3a4.56,4.56,0,0,1,3.22,7.79L409.1,683.31A4.56,4.56,0,0,1,402.65,683.31Z"/><path class="cls-2" d="M700.41,617.37l-257-257a5.37,5.37,0,0,1,.06-7.69c73.36-69.27,189-68,260.81,3.82S777.37,544,708.1,617.31A5.37,5.37,0,0,1,700.41,617.37Z"/><path class="cls-3" d="M372.59,606.59c0-21.28,7-39.67,20.38-53.09,17.79-17.79,44.32-24.23,74.7-18.16,22.71,4.55,41.95.3,54.2-12s16.49-31.49,12-54.2c-6.07-30.39.37-56.91,18.16-74.7,16.85-16.85,41.57-23.52,70-19a4.6,4.6,0,0,1,3.81,5.43l-2.66,13.29a4.56,4.56,0,0,1-5.15,3.62c-20.84-3.21-38.46,1.24-49.93,12.71-12.24,12.24-16.49,31.5-11.95,54.2,6.08,30.39-.37,56.91-18.15,74.7s-44.32,24.23-74.7,18.15c-22.71-4.54-42-.29-54.2,11.95-11.47,11.47-15.92,29.09-12.71,49.93a4.55,4.55,0,0,1-3.62,5.15l-13.29,2.66a4.6,4.6,0,0,1-5.43-3.81A107.65,107.65,0,0,1,372.59,606.59Z"/><circle class="cls-4" cx="582.82" cy="649.7" r="76.34"/><path class="cls-5" d="M451.46,721.21a56.69,56.69,0,0,1,13.4-36.78,4.58,4.58,0,0,1,6.73-.24l9.6,9.6a4.63,4.63,0,0,1,.29,6.16,34.8,34.8,0,0,0-5.73,31.94,26.6,26.6,0,0,0,1.8,4.47c10.71,20.78,36,24.78,52.31,12a4.63,4.63,0,0,1,6.17.29l9.59,9.6a4.59,4.59,0,0,1-.24,6.74,57.16,57.16,0,0,1-93.92-43.76Z"/><path class="cls-6" d="M457.6,488.16l10.72-10.72a5.09,5.09,0,0,0,0-7.22l-24-24,24-24a5.09,5.09,0,0,0,0-7.22L457.6,404.23a5.12,5.12,0,0,0-7.23,0l-24,24-24-24a5.11,5.11,0,0,0-7.22,0L384.39,415a5.09,5.09,0,0,0,0,7.22l24,24-24,24a5.09,5.09,0,0,0,0,7.22l10.72,10.72a5.09,5.09,0,0,0,7.22,0l24-24,24,24A5.11,5.11,0,0,0,457.6,488.16Z"/></svg>