<svg width="99" height="102" viewBox="0 0 99 102" fill="none" xmlns="http://www.w3.org/2000/svg">
<path d="M4.11143 48.212C8.29122 44.1204 13.2493 41.9594 18.4578 42.0071C25.3727 42.0809 31.7386 46.0536 36.3876 53.1879C39.8605 58.5234 44.3946 61.4853 49.1659 61.5265C53.9372 61.5677 58.5217 58.7107 62.1191 53.4623C66.9211 46.4268 73.3684 42.5926 80.2832 42.6664C86.8327 42.7362 92.8958 46.3092 97.4744 52.7625C97.5734 52.9009 97.6435 53.058 97.6804 53.2242C97.7173 53.3904 97.7202 53.5624 97.689 53.7298C97.6579 53.8972 97.5932 54.0565 97.4989 54.1983C97.4046 54.3401 97.2827 54.4614 97.1404 54.5549L94.0185 56.5877C93.7487 56.7638 93.4215 56.8293 93.1047 56.7706C92.7879 56.7118 92.5059 56.5334 92.3173 56.2722C88.9408 51.5616 84.6789 48.9563 80.2206 48.9088C75.463 48.8581 70.8628 51.7265 67.277 56.9829C62.4769 64.0203 56.0277 67.8525 49.1148 67.7807C42.2019 67.709 35.834 63.7342 31.1869 56.598C27.7121 51.2644 23.1684 48.2927 18.4185 48.2498C13.9602 48.2023 9.64367 50.7161 6.16751 55.3536C5.97374 55.6112 5.68796 55.7841 5.36979 55.8361C5.05163 55.8881 4.72566 55.8153 4.45992 55.6328L1.38214 53.5338C1.24186 53.4373 1.12252 53.3135 1.03128 53.1697C0.940037 53.0259 0.878777 52.8652 0.851163 52.6972C0.823549 52.5292 0.830155 52.3573 0.870584 52.1919C0.911013 52.0266 0.98443 51.871 1.08644 51.7347C2.00093 50.483 3.01238 49.3052 4.11143 48.212Z" fill="url(#paint0_linear)"/>
<path d="M32.6318 31.4115L36.4916 27.5522C36.6629 27.3819 36.7989 27.1794 36.8917 26.9563C36.9845 26.7333 37.0323 26.4941 37.0323 26.2525C37.0323 26.0109 36.9845 25.7717 36.8917 25.5487C36.7989 25.3256 36.6629 25.1231 36.4916 24.9528L27.8502 16.3124L36.4916 7.67205C36.6629 7.50175 36.7989 7.29925 36.8917 7.0762C36.9845 6.85316 37.0323 6.61396 37.0323 6.37239C37.0323 6.13081 36.9845 5.89163 36.8917 5.66858C36.7989 5.44553 36.6629 5.24303 36.4916 5.07273L32.6318 1.19536C32.2862 0.85086 31.8181 0.65741 31.3302 0.65741C30.8422 0.65741 30.3741 0.85086 30.0286 1.19536L21.3873 9.83575L12.7459 1.19536C12.401 0.85108 11.9335 0.657717 11.4461 0.657717C10.9588 0.657717 10.4913 0.85108 10.1463 1.19536L6.27214 5.07273C6.10079 5.24303 5.96481 5.44553 5.87201 5.66858C5.77922 5.89163 5.73145 6.13081 5.73145 6.37239C5.73145 6.61396 5.77922 6.85316 5.87201 7.0762C5.96481 7.29925 6.10079 7.50175 6.27214 7.67205L14.9135 16.3124L6.27214 24.9528C6.10079 25.1231 5.96481 25.3256 5.87201 25.5487C5.77922 25.7717 5.73145 26.0109 5.73145 26.2525C5.73145 26.4941 5.77922 26.7333 5.87201 26.9563C5.96481 27.1794 6.10079 27.3819 6.27214 27.5522L10.1319 31.4115C10.3022 31.5829 10.5048 31.7188 10.7278 31.8116C10.9509 31.9044 11.1901 31.9522 11.4317 31.9522C11.6733 31.9522 11.9125 31.9044 12.1356 31.8116C12.3587 31.7188 12.5612 31.5829 12.7315 31.4115L21.3728 22.7711L30.0142 31.4115C30.1853 31.5847 30.3891 31.7222 30.6138 31.8161C30.8384 31.9099 31.0795 31.9582 31.323 31.9582C31.5665 31.9582 31.8075 31.9099 32.0322 31.8161C32.2569 31.7222 32.4607 31.5847 32.6318 31.4115Z" fill="url(#paint1_linear)"/>
<path d="M91.2499 31.4115L95.1097 27.5522C95.2811 27.3819 95.4171 27.1794 95.5099 26.9563C95.6027 26.7333 95.6504 26.4941 95.6504 26.2525C95.6504 26.0109 95.6027 25.7717 95.5099 25.5487C95.4171 25.3256 95.2811 25.1231 95.1097 24.9528L86.4684 16.3124L95.1097 7.67205C95.2811 7.50175 95.4171 7.29925 95.5099 7.0762C95.6027 6.85316 95.6504 6.61396 95.6504 6.37239C95.6504 6.13081 95.6027 5.89163 95.5099 5.66858C95.4171 5.44553 95.2811 5.24303 95.1097 5.07273L91.2499 1.19536C90.9044 0.85086 90.4363 0.65741 89.9483 0.65741C89.4604 0.65741 88.9923 0.85086 88.6467 1.19536L80.0054 9.83575L71.3641 1.19536C71.0191 0.85108 70.5517 0.657717 70.0643 0.657717C69.5769 0.657717 69.1094 0.85108 68.7645 1.19536L64.8903 5.07273C64.719 5.24303 64.583 5.44553 64.4902 5.66858C64.3974 5.89163 64.3496 6.13081 64.3496 6.37239C64.3496 6.61396 64.3974 6.85316 64.4902 7.0762C64.583 7.29925 64.719 7.50175 64.8903 7.67205L73.5316 16.3124L64.8903 24.9528C64.719 25.1231 64.583 25.3256 64.4902 25.5487C64.3974 25.7717 64.3496 26.0109 64.3496 26.2525C64.3496 26.4941 64.3974 26.7333 64.4902 26.9563C64.583 27.1794 64.719 27.3819 64.8903 27.5522L68.7501 31.4115C68.9204 31.5829 69.1229 31.7188 69.346 31.8116C69.5691 31.9044 69.8083 31.9522 70.0499 31.9522C70.2915 31.9522 70.5307 31.9044 70.7538 31.8116C70.9768 31.7188 71.1794 31.5829 71.3497 31.4115L79.991 22.7711L88.6323 31.4115C88.8035 31.5847 89.0073 31.7222 89.2319 31.8161C89.4566 31.9099 89.6977 31.9582 89.9411 31.9582C90.1846 31.9582 90.4257 31.9099 90.6503 31.8161C90.875 31.7222 91.0788 31.5847 91.2499 31.4115Z" fill="url(#paint2_linear)"/>
<defs>
<linearGradient id="paint0_linear" x1="74.1224" y1="28.3846" x2="24.3775" y2="77.0799" gradientUnits="userSpaceOnUse">
<stop stop-color="#FF0080"/>
<stop offset="1" stop-color="#BF00FF"/>
</linearGradient>
<linearGradient id="paint1_linear" x1="21.3801" y1="0.655334" x2="21.3801" y2="31.9516" gradientUnits="userSpaceOnUse">
<stop stop-color="#FF8000"/>
<stop offset="1" stop-color="#FFFF00"/>
</linearGradient>
<linearGradient id="paint2_linear" x1="79.9982" y1="0.655334" x2="79.9982" y2="31.9516" gradientUnits="userSpaceOnUse">
<stop stop-color="#FF8000"/>
<stop offset="1" stop-color="#FFFF00"/>
</linearGradient>
</defs>
</svg>
